<svg width="32" height="32" viewBox="0 0 32 32" xmlns="http://www.w3.org/2000/svg">
  <defs>
    <linearGradient id="leafGradient" x1="0%" y1="0%" x2="100%" y2="100%">
      <stop offset="0%" style="stop-color:#7FB069;stop-opacity:1" />
      <stop offset="100%" style="stop-color:#8B6F9E;stop-opacity:1" />
    </linearGradient>
  </defs>

  <!-- Background circle -->
  <circle cx="16" cy="16" r="15" fill="#F5F0E8" stroke="#7FB069" stroke-width="1"/>

  <!-- Leaf -->
  <path d="M16 6c-2 0-4 1-5.5 2.5C9 10 8 12 8 14c0 2 1 4 2.5 5.5C12 21 14 22 16 22c2 0 4-1 5.5-2.5C23 18 24 16 24 14c0-2-1-4-2.5-5.5C20 7 18 6 16 6z"
        fill="url(#leafGradient)"
        stroke="#5A8F4A"
        stroke-width="0.5"/>

  <!-- Stem -->
  <rect x="15.5" y="22" width="1" height="4" fill="#5A8F4A" rx="0.5"/>

  <!-- Small decorative dots -->
  <circle cx="12" cy="10" r="1" fill="#8B6F9E"/>
  <circle cx="20" cy="12" r="1" fill="#8B6F9E"/>
  <circle cx="14" cy="18" r="0.8" fill="#7FB069"/>
</svg>